<?xml version="1.0" standalone="no"?>
<!DOCTYPE svg PUBLIC "-//W3C//DTD SVG 20010904//EN"
 "http://www.w3.org/TR/2001/REC-SVG-20010904/DTD/svg10.dtd">
<svg version="1.0" xmlns="http://www.w3.org/2000/svg"
 width="132.000000pt" height="132.000000pt" viewBox="0 0 132.000000 132.000000"
 preserveAspectRatio="xMidYMid meet">
<metadata>
Created by potrace 1.14, written by Peter Selinger 2001-2017
</metadata>
<g transform="translate(0.000000,132.000000) scale(0.100000,-0.100000)"
fill="#000000" stroke="none">
<path d="M650 1260 l-22 -31 -20 26 c-27 35 -56 33 -69 -5 -13 -36 -18 -37
-53 -9 -34 27 -52 20 -60 -25 -8 -40 -10 -41 -46 -21 -38 22 -50 18 -50 -14 0
-51 -8 -60 -43 -50 -56 16 -59 14 -51 -36 l6 -45 -47 0 c-51 0 -51 1 -30 -67
7 -21 4 -23 -29 -23 -44 0 -53 -17 -32 -59 15 -28 15 -31 -3 -41 -11 -5 -27
-10 -35 -10 -23 0 -20 -39 4 -65 l20 -22 -35 -19 c-43 -23 -44 -36 -4 -65 l32
-22 -27 -19 c-35 -26 -33 -54 4 -73 l31 -16 -21 -26 c-31 -39 -26 -61 15 -69
19 -3 35 -8 35 -10 0 -2 -8 -19 -17 -39 -20 -42 -10 -55 41 -55 25 0 27 -3 21
-22 -21 -69 -21 -68 30 -68 l47 0 -7 -46 -7 -47 37 7 c20 4 43 10 51 13 11 4
14 -5 14 -41 0 -50 8 -55 50 -31 36 20 38 19 50 -25 13 -47 22 -49 63 -14 l31
26 14 -36 c17 -44 42 -47 72 -9 l21 28 20 -25 c10 -14 19 -28 19 -32 0 -20 33
-5 48 22 20 35 26 36 53 9 29 -29 52 -20 64 24 l11 38 27 -21 c39 -31 61 -23
65 24 3 34 6 37 25 31 12 -4 35 -9 50 -12 l29 -6 -7 46 -7 45 48 -6 47 -5 -6
47 -7 46 45 0 c50 0 51 2 30 54 l-15 36 40 6 c45 7 50 22 20 63 l-19 28 34 16
c41 20 43 32 10 67 l-24 25 29 20 c38 26 38 46 -1 69 l-31 18 26 27 c35 36 33
48 -10 66 l-36 15 22 30 c27 38 21 58 -22 62 -35 3 -35 2 -21 71 5 26 4 27
-36 27 l-42 0 7 47 7 46 -47 -6 -46 -7 0 45 c0 49 -4 52 -54 31 l-34 -14 -6
39 c-7 44 -28 51 -70 23 -23 -15 -24 -14 -36 20 -13 41 -37 47 -65 16 -24 -26
-27 -25 -48 10 -23 38 -40 38 -67 0z"/>
</g>
</svg>
